<?xml version="1.0" standalone="no"?> <!DOCTYPE svg PUBLIC "-//W3C//DTD SVG 1.0//EN" "http://www.w3.org/TR/2001/REC-SVG-20010904/DTD/svg10.dtd" > <svg xmlns="http://www.w3.org/2000/svg" width="100%" height="100%">
<defs >
<font id="itcavantgardepro-bold" horiz-adv-x="519" ><font-face
    font-family="ITC Avant Garde Pro Md"
    units-per-em="1000"
    panose-1="2 0 5 3 5 0 0 2 0 4"
    ascent="740"
    descent="-260"
    alphabetic="0" />
<missing-glyph horiz-adv-x="500" d="M12 0V665H487V0H12ZM88 618L250 375L411 618H88ZM60 575V91Q60 90 140 212L221 333L60 575ZM440 575L278 333L440 90V575ZM411 48L250 290L88 48H411Z" />
<glyph unicode=" " glyph-name="space" horiz-adv-x="309" />
<glyph unicode="!" glyph-name="exclam" horiz-adv-x="333" d="M252 244H81V740H252V244ZM252 0H81V170H252V0Z" />
<glyph unicode="&quot;" glyph-name="quotedbl" horiz-adv-x="463" d="M429 740L395 443H288L255 740H429ZM208 740L174 443H67L34 740H208Z" />
<glyph unicode="#" glyph-name="numbersign" horiz-adv-x="618" d="M588 514L573 403H461L451 330H562L547 219H435L411 45H298L322 219H244L220 45H106L130 219H31L46 330H146L156 403H56L71 514H171L193 672H307L285 514H363L385 672H499L477 514H588ZM348 403H270L260
330H338L348 403Z" />
<glyph unicode="$" glyph-name="dollar" horiz-adv-x="986" d="M538 232Q538 160 495 106T381 29V-76H246V25Q165 42 124 93Q80 147 80 224H251Q253 194 267 174T310 153Q334 153 350 170T367 212Q367 240 346 260T294 292T227 320T159 356T107 415T86 508Q86
585 128 637T246 710V811H381V710Q447 695 484 645T520 525V520H365Q361 583 310 583Q286 583 271 567T256 527Q256 499 281 477T336 445T391 424Q458 398 498 349T538 232Z" />
<glyph unicode="%" glyph-name="percent" horiz-adv-x="858" d="M822 166Q822 92 769 39T642 -15Q567 -15 514 38T461 166T514 294T642 347T769 294T822 166ZM638 740L331 0H216L522 740H638ZM396 574Q396 500 343 447T216 394T89 447T36 574Q36 649 88 702T216
755T343 702T396 574ZM711 137T711 166T691 215T642 236T593 216T572 166Q572 138 593 117T642 96T690 116ZM285 546T285 575T265 624T216 644Q187 644 167 624T147 574Q147 546 167 526T216 505T264 525Z" />
<glyph unicode="&amp;" glyph-name="ampersand" horiz-adv-x="758" d="M729 435L672 298Q648 241 616 200L717 96L604 -15L517 75Q413 -15 296 -15Q198 -15 124 45T49 200Q49 267 84 312T186 403Q116 475 116 563Q116 646 176 700T321 754Q402 754 458 703T515
572Q515 473 413 402L500 314L554 435H729ZM365 573Q365 593 354 606T322 620T290 606T277 571Q277 535 319 491Q365 537 365 573ZM406 184L288 303Q270 289 260 279T241 252T231 217Q231 183 256 164T316 144Q372 144 406 184Z" />
<glyph unicode="&apos;" glyph-name="quotesingle" horiz-adv-x="242" d="M208 740L174 443H67L34 740H208Z" />
<glyph unicode="(" glyph-name="parenleft" horiz-adv-x="473" d="M430 -264Q263 -201 164 -66T65 245Q65 421 164 556T430 754V580Q347 534 299 439T250 243T298 49T430 -91V-264Z" />
<glyph unicode=")" glyph-name="parenright" horiz-adv-x="473" d="M408 244Q408 69 309 -66T43 -264V-91Q126 -45 174 50T223 246T175 440T43 580V754Q210 691 309 556T408 244Z" />
<glyph unicode="*" glyph-name="asterisk" horiz-adv-x="670" d="M555 539L424 498L507 388L414 318L332 433L253 318L160 388L246 498L115 539L151 648L279 600L276 740H395L388 600L517 648L555 539Z" />
<glyph unicode="+" glyph-name="plus" horiz-adv-x="600" d="M552 173H380V0H220V173H48V333H220V506H380V333H552V173Z" />
<glyph unicode="," glyph-name="comma" horiz-adv-x="314" d="M244 -40Q244 -90 217 -125T142 -161H71V-72Q82 -73 95 -72T121 -70T141 -59T149 -34V0H71V170H244V-40Z" />
<glyph unicode="-" glyph-name="hyphen" horiz-adv-x="281" d="M281 207H0V370H281V207Z" />
<glyph unicode="." glyph-name="period" horiz-adv-x="314" d="M244 0H71V170H244V0Z" />
<glyph unicode="/" glyph-name="slash" horiz-adv-x="593" d="M521 740L257 -100H72L337 740H521Z" />
<glyph unicode="0" glyph-name="zero" horiz-adv-x="618" d="M585 267Q585 181 548 115T434 13Q377 -14 312 -14Q254 -14 199 9Q118 43 76 110T33 267V473Q33 564 75 631T200 732Q257 754 312 754Q369 754 425 730Q504 695 544 629T585 473V267ZM396 262V478Q396
588 309 588Q264 588 243 557T222 478V262Q222 214 243 183T309 152Q396 152 396 262Z" />
<glyph unicode="1" glyph-name="one" horiz-adv-x="618" d="M414 0H225V581H104V740H414V0Z" />
<glyph unicode="2" glyph-name="two" horiz-adv-x="618" d="M573 0H51V147Q127 196 179 236T277 327Q379 438 379 516Q379 548 360 568T309 588Q230 588 224 471H44Q47 578 88 641Q124 697 185 725T316 754Q392 754 455 722T549 624Q568 581 568 539Q568 482 547
428T485 323T410 239T322 159H573V0Z" />
<glyph unicode="3" glyph-name="three" horiz-adv-x="618" d="M579 218Q579 116 495 51T305 -14Q237 -14 173 12T74 90Q42 139 33 221H224Q239 152 310 152Q348 152 369 174T390 235Q390 266 373 284T330 305T275 310T224 310V449Q248 449 258 449T290 453T321
464T340 486T349 523Q349 550 336 569T297 588Q241 588 239 524H53Q54 631 126 692T306 754Q399 754 468 699T538 552Q538 450 440 397Q579 350 579 218Z" />
<glyph unicode="4" glyph-name="four" horiz-adv-x="618" d="M604 130H522V0H341V130H15V268L346 740H522V278H604V130ZM353 278V510H351L205 278H353Z" />
<glyph unicode="5" glyph-name="five" horiz-adv-x="618" d="M592 254Q592 200 570 150Q535 70 466 28T308 -15Q203 -15 124 41T26 198H216Q249 152 303 152Q344 152 373 181T403 250Q403 293 374 320T302 347Q232 347 205 283L52 321L116 740H525V581H261L245
480Q285 502 345 502Q423 502 482 464T572 353Q592 305 592 254Z" />
<glyph unicode="6" glyph-name="six" horiz-adv-x="618" d="M600 268Q600 146 518 66T313 -14Q186 -14 104 65T21 272Q21 370 89 470L273 740H492L329 517L331 515Q342 519 367 519Q469 519 534 446T600 268ZM411 252Q411 296 381 324T307 353Q265 353 236 325T207
255Q207 212 235 182T307 152T380 180T411 252Z" />
<glyph unicode="7" glyph-name="seven" horiz-adv-x="618" d="M547 595L287 0H79L352 581H65V740H547V595Z" />
<glyph unicode="8" glyph-name="eight" horiz-adv-x="618" d="M579 220Q579 117 498 52T310 -14T122 51T39 220Q39 283 69 333T155 407Q83 462 83 546Q83 639 149 696T309 754Q402 754 468 697T535 548Q535 464 463 407Q520 383 549 334T579 220ZM377 535Q377
562 357 581T310 601Q281 601 261 581T241 533Q241 504 260 485T308 465T357 485T377 535ZM390 236Q390 271 367 296T309 321Q273 321 251 297T228 237T252 177T312 152Q345 152 367 177T390 236Z" />
<glyph unicode="9" glyph-name="nine" horiz-adv-x="618" d="M602 476Q602 375 531 271L347 0H128L291 224L289 226Q278 222 253 222Q203 222 155 246Q90 278 55 338T20 473Q20 595 102 674T307 754Q455 754 540 657Q602 587 602 476ZM413 486Q413 530 384 559T311
588Q269 588 239 560T209 489Q209 446 238 417T311 388Q354 388 383 415T413 486Z" />
<glyph unicode=":" glyph-name="colon" horiz-adv-x="314" d="M244 385H71V555H244V385ZM244 0H71V170H244V0Z" />
<glyph unicode=";" glyph-name="semicolon" horiz-adv-x="314" d="M244 385H71V555H244V385ZM244 -40Q244 -90 217 -125T142 -161H71V-72Q82 -73 95 -72T121 -70T141 -59T149 -34V0H71V170H244V-40Z" />
<glyph unicode="&lt;" glyph-name="less" horiz-adv-x="600" d="M554 -38L46 176V330L554 544V369L214 254V252L554 137V-38Z" />
<glyph unicode="=" glyph-name="equal" horiz-adv-x="600" d="M552 305H48V465H552V305ZM552 41H48V201H552V41Z" />
<glyph unicode="&gt;" glyph-name="greater" horiz-adv-x="600" d="M554 176L46 -38V137L386 252V254L46 369V544L554 330V176Z" />
<glyph unicode="?" glyph-name="question" horiz-adv-x="592" d="M551 542Q551 497 533 459T487 393T432 341T384 290T361 235H187Q188 273 205 308T248 368T299 418T341 468T359 521Q359 583 301 583Q272 583 257 568T237 535T232 487H49Q48 493 48 505Q48 615
123 684T311 754Q380 754 438 724T527 634Q551 589 551 542ZM361 0H187V170H361V0Z" />
<glyph unicode="@" glyph-name="at" horiz-adv-x="748" d="M743 428Q743 372 725 320Q703 255 656 207T547 159Q474 159 449 231Q406 159 330 159Q261 159 219 212T176 336Q176 421 232 490T371 560Q404 560 431 545T470 501H472L480 548H584L547 330Q540 293
540 279Q540 253 567 253Q593 253 612 287T640 353Q649 389 649 427Q649 534 575 599T393 665Q269 665 184 577T99 363Q99 307 119 253Q183 75 392 75Q504 75 603 112L624 20Q523 -16 392 -16Q263 -16 167 43T25 219Q-3 291 -3 365Q-3 530 110 643T389 756Q537
756 640 665T743 428ZM450 385Q450 419 433 442T384 466Q340 466 312 426T283 340Q283 303 302 278T358 253Q404 253 427 294T450 385Z" />
<glyph unicode="A" glyph-name="A" horiz-adv-x="758" d="M749 0H544L508 107H251L212 0H9L306 740H455L749 0ZM458 257L382 510H381H379L303 257H458Z" />
<glyph unicode="B" glyph-name="B" horiz-adv-x="647" d="M612 225Q612 122 544 64Q508 33 466 19T394 2T302 0H67V740H295Q353 740 384 738T459 718T532 668Q576 620 576 546Q576 499 554 460T490 397Q612 355 612 225ZM395 518Q395 574 321 574H248V459H320Q395
459 395 518ZM431 237Q431 301 343 301H248V166H342Q431 166 431 237Z" />
<glyph unicode="C" glyph-name="C" horiz-adv-x="832" d="M801 277Q769 146 666 66T427 -14Q265 -14 151 97T37 371T150 643T425 754Q526 754 611 709T751 580Q791 520 801 459H603Q581 517 533 552T424 588Q337 588 282 525T226 372T281 218T425 152Q485 152
531 186T603 277H801Z" />
<glyph unicode="D" glyph-name="D" horiz-adv-x="742" d="M697 372Q697 191 598 96T316 0H57V740H302Q415 740 492 712T629 602Q697 507 697 372ZM508 369Q508 462 464 518T328 574H246V166H327Q420 166 464 220T508 369Z" />
<glyph unicode="E" glyph-name="E" horiz-adv-x="528" d="M478 0H67V740H478V574H248V459H471V293H248V166H478V0Z" />
<glyph unicode="F" glyph-name="F" horiz-adv-x="506" d="M471 574H248V448H463V282H248V0H67V740H471V574Z" />
<glyph unicode="G" glyph-name="G" horiz-adv-x="854" d="M823 382Q823 212 711 99T428 -15Q264 -15 150 97T35 373T150 645T431 754Q554 754 661 681T801 492H589Q535 588 426 588Q337 588 281 526T224 373Q224 279 279 215T427 151Q491 151 539 181T604 270H383V421H822Q823
408 823 382Z" />
<glyph unicode="H" glyph-name="H" horiz-adv-x="754" d="M687 0H498V296H256V0H67V740H256V462H498V740H687V0Z" />
<glyph unicode="I" glyph-name="I" horiz-adv-x="323" d="M256 0H67V740H256V0Z" />
<glyph unicode="J" glyph-name="J" horiz-adv-x="578" d="M510 293Q510 245 509 218T496 150T464 83Q427 37 371 12T255 -14Q202 -14 155 4Q6 58 6 238H207Q212 152 264 152Q283 152 295 160T313 184T319 213T321 246V740H510V293Z" />
<glyph unicode="K" glyph-name="K" horiz-adv-x="707" d="M701 0H480L278 320H276V0H87V740H276V407H278L487 740H685L440 371L701 0Z" />
<glyph unicode="L" glyph-name="L" horiz-adv-x="487" d="M480 0H72V740H261V166H480V0Z" />
<glyph unicode="M" glyph-name="M" horiz-adv-x="915" d="M848 0H674L680 554L678 556L520 0H395L237 556L235 554L241 0H67V740H310L457 253H459L604 740H848V0Z" />
<glyph unicode="N" glyph-name="N" horiz-adv-x="759" d="M691 0H527L245 450L243 449L248 0H67V740H230L516 275L518 277L510 740H691V0Z" />
<glyph unicode="O" glyph-name="O" horiz-adv-x="851" d="M816 370Q816 207 702 97T424 -14Q265 -14 150 94T35 361Q35 445 64 519Q79 559 112 602Q228 754 425 754Q588 754 702 643T816 370ZM627 369Q627 458 571 523T426 588Q337 588 281 525T224 372Q224 281
281 217T428 152Q515 152 571 216T627 369Z" />
<glyph unicode="P" glyph-name="P" horiz-adv-x="636" d="M624 490Q624 436 604 383T546 296Q502 257 452 245T330 232H248V0H67V740H309Q357 740 390 738T466 723T537 686Q624 612 624 490ZM443 487Q443 539 409 556T318 574H248V398H325Q380 398 411 417T443 487Z" />
<glyph unicode="Q" glyph-name="Q" horiz-adv-x="866" d="M855 -13Q823 -15 808 -15Q689 -15 634 43Q541 -15 426 -15Q265 -15 150 95T35 366Q35 529 148 641T424 754Q529 754 619 705T764 569T819 376Q819 253 758 162Q795 128 855 137V-13ZM630 379Q630 469
572 528T425 588Q344 588 292 536T225 401Q285 426 330 426Q408 426 478 383T605 270Q630 313 630 379ZM510 170Q462 228 417 258T310 288Q278 288 244 276Q267 222 316 187T424 151Q475 151 510 170Z" />
<glyph unicode="R" glyph-name="R" horiz-adv-x="653" d="M637 0H421L250 239H248V0H67V740H301Q351 740 382 738T456 724T529 687Q620 614 620 485Q620 397 571 332T436 252L637 0ZM439 474Q439 525 405 549T317 574H248V368H315Q372 368 405 394T439 474Z" />
<glyph unicode="S" glyph-name="S" horiz-adv-x="573" d="M550 213Q550 101 479 44T292 -14Q175 -14 100 46T25 221V245H213Q213 204 232 174T290 144Q320 144 341 164T362 215Q362 232 356 245T336 268T313 282T283 296Q261 306 217 324Q132 359 84 407T36 536Q36
634 115 694T295 754Q352 754 406 733T495 670Q522 637 532 604T544 524H357Q352 559 337 577T289 596Q263 596 244 580T224 538Q224 518 231 507Q242 488 299 460T377 425Q462 386 506 340T550 213Z" />
<glyph unicode="T" glyph-name="T" horiz-adv-x="499" d="M490 574H345V0H156V574H10V740H490V574Z" />
<glyph unicode="U" glyph-name="U" horiz-adv-x="698" d="M633 293Q633 217 618 164T559 66Q480 -14 352 -14Q214 -14 139 65Q92 114 79 163T65 293V740H254V293Q254 230 273 191T350 152Q376 152 394 160T421 181T436 213T443 251T444 293V740H633V293Z" />
<glyph unicode="V" glyph-name="V" horiz-adv-x="722" d="M706 740L458 0H263L16 740H210L359 221H361L511 740H706Z" />
<glyph unicode="W" glyph-name="W" horiz-adv-x="981" d="M964 740L768 0H602L491 479H489L378 0H207L16 740H208L307 259H309L418 740H563L670 257H672L773 740H964Z" />
<glyph unicode="X" glyph-name="X" horiz-adv-x="759" d="M748 0H534L374 262L222 0H11L270 394L41 740H255L382 529L505 740H718L492 390L748 0Z" />
<glyph unicode="Y" glyph-name="Y" horiz-adv-x="647" d="M638 740L419 269V0H230V269L9 740H214L324 443L435 740H638Z" />
<glyph unicode="Z" glyph-name="Z" horiz-adv-x="499" d="M483 0H16V124L271 574H16V740H483V587L247 166H483V0Z" />
<glyph unicode="[" glyph-name="bracketleft" horiz-adv-x="473" d="M401 -264Q291 -258 215 -204Q153 -160 129 -97T104 51V439Q104 524 128 586T215 694Q289 748 401 754V580Q339 577 316 544T292 446V44Q292 -20 315 -53T401 -90V-264Z" />
<glyph unicode="\" glyph-name="backslash" horiz-adv-x="593" d="M521 -100H336L72 740H256L521 -100Z" />
<glyph unicode="]" glyph-name="bracketright" horiz-adv-x="473" d="M369 51Q369 -34 345 -96T258 -204Q184 -258 72 -264V-90Q134 -87 157 -54T181 44V446Q181 510 158 543T72 580V754Q182 748 258 694Q320 650 344 587T369 439V51Z" />
<glyph unicode="^" glyph-name="asciicircum" horiz-adv-x="600" d="M557 375H377L301 598H299L222 375H43L217 740H383L557 375Z" />
<glyph unicode="_" glyph-name="underscore" horiz-adv-x="500" d="M500 -125H0V-75H500V-125Z" />
<glyph unicode="`" glyph-name="grave" horiz-adv-x="555" d="M404 721L358 624L111 732L162 849L404 721Z" />
<glyph unicode="a" glyph-name="a" horiz-adv-x="704" d="M643 0H477V60H475Q454 20 409 1T313 -19Q188 -19 111 66T34 278Q34 402 112 488T313 574Q363 574 407 555T475 496H477V555H643V0ZM477 278Q477 339 438 379T337 419Q277 419 239 378T200 276Q200 218
240 177T338 136Q398 136 437 177T477 278Z" />
<glyph unicode="b" glyph-name="b" horiz-adv-x="693" d="M660 281Q660 152 584 67T380 -19Q333 -19 287 1T221 59H219V0H60V740H226V511Q285 574 387 574Q445 574 504 547Q582 511 621 441T660 281ZM494 278Q494 336 455 377T358 419Q299 419 260 379T220 279Q220
219 257 178T355 136T454 177T494 278Z" />
<glyph unicode="c" glyph-name="c" horiz-adv-x="652" d="M621 211Q597 109 516 46T330 -18Q206 -18 120 68T33 279Q33 402 118 488T326 574Q434 574 516 510T620 341H452Q416 419 328 419Q270 419 235 378T200 278Q200 218 236 178T332 137Q413 137 452 211H621Z" />
<glyph unicode="d" glyph-name="d" horiz-adv-x="698" d="M638 0H480V60H478Q432 -18 312 -18Q187 -18 111 67T34 279Q34 403 110 488T309 574Q407 574 472 508V740H638V0ZM481 280Q481 340 441 379T341 419T241 380T200 280Q200 218 238 178T339 137T441 177T481 280Z" />
<glyph unicode="e" glyph-name="e" horiz-adv-x="646" d="M614 271Q614 247 610 227H194Q201 179 237 151T324 122Q384 122 425 174H595Q558 88 487 35T324 -18Q202 -18 116 68T30 276T115 486T321 574Q447 574 530 486T614 271ZM448 339Q438 383 403 408T322
434T241 409T196 339H448Z" />
<glyph unicode="f" glyph-name="f" horiz-adv-x="314" d="M302 429H232V0H66V429H4V555H66V584Q66 754 278 754H302V629Q257 629 245 616T232 555H302V429Z" />
<glyph unicode="g" glyph-name="g" horiz-adv-x="693" d="M635 67Q635 -59 602 -116Q564 -181 485 -214T321 -247Q153 -247 78 -138Q50 -97 44 -52H236Q261 -107 333 -107Q399 -107 433 -66T468 44V61H466Q445 22 403 2T314 -18Q191 -18 113 66T34 274Q34 399
112 486T314 573Q423 573 467 503H469V555H635V67ZM469 275Q469 336 432 377T334 418Q277 418 239 378T200 280Q200 221 237 179T333 137Q393 137 431 176T469 275Z" />
<glyph unicode="h" glyph-name="h" horiz-adv-x="632" d="M574 0H408V302Q408 418 319 418Q226 418 226 308V0H60V740H226V504H228Q267 574 371 574Q470 574 522 513Q547 484 559 447T572 386T574 310V0Z" />
<glyph unicode="i" glyph-name="i" horiz-adv-x="286" d="M226 614H60V740H226V614ZM226 0H60V555H226V0Z" />
<glyph unicode="j" glyph-name="j" horiz-adv-x="321" d="M253 614H87V740H253V614ZM253 12Q253 -106 209 -155T47 -204H6V-78H28Q66 -78 76 -57T87 6V555H253V12Z" />
<glyph unicode="k" glyph-name="k" horiz-adv-x="591" d="M585 555L376 311L579 0H391L234 267H232V0H66V740H232V354H234L388 555H585Z" />
<glyph unicode="l" glyph-name="l" horiz-adv-x="286" d="M226 0H60V740H226V0Z" />
<glyph unicode="m" glyph-name="m" horiz-adv-x="969" d="M912 0H746V295Q746 352 730 385T661 418Q569 418 569 303V0H403V302Q403 418 320 418Q226 418 226 295V0H60V555H215V496H217Q261 574 370 574Q477 574 530 475Q593 574 706 574Q797 574 852 518Q867
502 878 487T895 452T905 420T910 381T912 346T912 303V0Z" />
<glyph unicode="n" glyph-name="n" horiz-adv-x="632" d="M574 0H408V303Q408 358 390 388T321 418Q267 418 247 388T226 302V0H60V555H215V496H217Q265 574 368 574Q404 574 444 561T510 526Q574 473 574 347V0Z" />
<glyph unicode="o" glyph-name="o" horiz-adv-x="666" d="M632 405T632 278T547 67T333 -17T120 67T34 278T119 489T333 573T546 489ZM466 221T466 278T428 376T333 418T238 377T200 278T238 180T333 138T428 179Z" />
<glyph unicode="p" glyph-name="p" horiz-adv-x="697" d="M663 272Q663 152 587 67T393 -19Q289 -19 226 50V-185H60V555H216V494H217H219Q283 574 392 574Q516 574 589 486T663 272ZM497 277Q497 337 458 378T358 419T259 378T219 277Q219 218 259 177T358 136T457
177T497 277Z" />
<glyph unicode="q" glyph-name="q" horiz-adv-x="698" d="M638 -185H472V57H470Q416 -18 302 -18Q184 -18 109 65T34 267Q34 396 110 485T313 574Q364 574 409 554T477 494H479V555H638V-185ZM478 277Q478 337 438 378T338 419Q277 419 239 377T200 274Q200 217
241 177T340 137T438 178T478 277Z" />
<glyph unicode="r" glyph-name="r" horiz-adv-x="363" d="M356 407Q292 405 259 385T225 305V0H59V555H215V496H217Q257 574 356 574V407Z" />
<glyph unicode="s" glyph-name="s" horiz-adv-x="499" d="M476 170Q476 81 409 31T250 -19Q159 -19 96 29T24 165H189Q193 140 209 127T252 114Q273 114 291 125T310 157Q310 175 297 188T268 208T235 221Q187 237 163 246Q31 294 31 391Q31 474 95 524T246 574Q333
574 392 529T459 399H296Q295 441 244 441Q226 441 212 431T197 404Q197 384 217 370T269 349T336 328T404 299T455 249T476 170Z" />
<glyph unicode="t" glyph-name="t" horiz-adv-x="351" d="M339 429H259V0H93V429H11V555H93V740H259V555H339V429Z" />
<glyph unicode="u" glyph-name="u" horiz-adv-x="634" d="M574 0H417V59H415Q378 -18 271 -18Q165 -18 108 52Q77 91 68 128T58 223V555H224V248Q224 194 242 166T313 137Q408 137 408 250V555H574V0Z" />
<glyph unicode="v" glyph-name="v" horiz-adv-x="592" d="M575 555L375 0H216L17 555H189L295 209H297L403 555H575Z" />
<glyph unicode="w" glyph-name="w" horiz-adv-x="850" d="M843 555L673 0H519L426 359H424L331 0H177L7 555H179L262 210H264L355 555H495L587 210H589L672 555H843Z" />
<glyph unicode="x" glyph-name="x" horiz-adv-x="630" d="M628 0H425L314 172L201 0H1L212 297L25 555H224L314 409L403 555H600L413 297L628 0Z" />
<glyph unicode="y" glyph-name="y" horiz-adv-x="574" d="M573 555L295 -185H119L207 28L1 555H178L289 233H291L397 555H573Z" />
<glyph unicode="z" glyph-name="z" horiz-adv-x="444" d="M428 0H15V114L249 429H15V555H428V429L211 126H428V0Z" />
<glyph unicode="{" glyph-name="braceleft" horiz-adv-x="554" d="M483 -264H355Q289 -264 246 -228T202 -126V86Q202 119 172 133T105 147V319Q143 319 172 335T202 386V602Q202 667 245 703T355 740H483V614Q452 613 427 614T386 600T370 549V340Q370 287 343
263T262 235V231Q307 229 338 206T370 139V-73Q370 -109 386 -124T427 -138T483 -138V-264Z" />
<glyph unicode="|" glyph-name="bar" horiz-adv-x="555" d="M369 -100H186V740H369V-100Z" />
<glyph unicode="}" glyph-name="braceright" horiz-adv-x="554" d="M449 147Q412 147 382 133T352 86V-126Q352 -191 309 -227T199 -264H71V-138Q102 -137 127 -138T168 -124T184 -73V139Q184 182 215 205T292 231V235Q239 239 212 263T184 340V549Q184 585 168
600T127 614T71 614V740H199Q265 740 308 704T352 602V386Q352 351 381 335T449 319V147Z" />
<glyph unicode="~" glyph-name="asciitilde" horiz-adv-x="600" d="M533 219Q511 190 498 175T460 146T406 131Q368 131 303 165T189 199Q140 199 103 130L67 286Q116 375 194 375Q234 375 308 341T407 307Q426 307 445 320T472 344T497 377L533 219Z" />
</font>
</defs>
</svg>
